<svg width="15" height="15" viewBox="0 0 15 15" fill="none" xmlns="http://www.w3.org/2000/svg">
<path fill-rule="evenodd" clip-rule="evenodd" d="M6.13369 11.4515H2.5622C2.32753 11.4515 2.13708 11.2501 2.13708 11.0019C2.13708 10.7538 2.32753 10.5524 2.5622 10.5524H6.13369C6.36835 10.5524 6.5588 10.7538 6.5588 11.0019C6.5588 11.2501 6.36835 11.4515 6.13369 11.4515Z" fill="white"/>
<path fill-rule="evenodd" clip-rule="evenodd" d="M11.2978 5.64226H7.72687C7.49221 5.64226 7.30176 5.44088 7.30176 5.19274C7.30176 4.94461 7.49221 4.74323 7.72687 4.74323H11.2978C11.5325 4.74323 11.7229 4.94461 11.7229 5.19274C11.7229 5.44088 11.5325 5.64226 11.2978 5.64226Z" fill="white"/>
<mask id="mask0_12_96" style="mask-type:luminance" maskUnits="userSpaceOnUse" x="2" y="3" width="4" height="5">
<path fill-rule="evenodd" clip-rule="evenodd" d="M2.12061 3.30475H5.64948V7.01574H2.12061V3.30475Z" fill="white"/>
</mask>
<g mask="url(#mask0_12_96)">
<path fill-rule="evenodd" clip-rule="evenodd" d="M3.88496 4.20352C3.38106 4.20352 2.97069 4.63266 2.97069 5.1607C2.97069 5.68813 3.38106 6.11667 3.88496 6.11667C4.38943 6.11667 4.79923 5.68813 4.79923 5.1607C4.79923 4.63266 4.38943 4.20352 3.88496 4.20352ZM3.88498 7.01574C2.91232 7.01574 2.12048 6.18383 2.12048 5.16072C2.12048 4.13761 2.91232 3.3045 3.88498 3.3045C4.85819 3.3045 5.64947 4.13761 5.64947 5.16072C5.64947 6.18383 4.85819 7.01574 3.88498 7.01574Z" fill="white"/>
</g>
<path fill-rule="evenodd" clip-rule="evenodd" d="M10.2757 10.0221C9.77128 10.0221 9.36091 10.4513 9.36091 10.9787C9.36091 11.5067 9.77128 11.9353 10.2757 11.9353C10.7796 11.9353 11.1895 11.5067 11.1895 10.9787C11.1895 10.4513 10.7796 10.0221 10.2757 10.0221ZM10.2758 12.8343C9.30258 12.8343 8.51074 12.0018 8.51074 10.9787C8.51074 9.95562 9.30258 9.12311 10.2758 9.12311C11.2485 9.12311 12.0397 9.95562 12.0397 10.9787C12.0397 12.0018 11.2485 12.8343 10.2758 12.8343Z" fill="white"/>
</svg>
